
<svg xmlns="http://www.w3.org/2000/svg" version="1.1" id="svg10" width="1500" height="513" viewBox="0 0 1500 513">
  
  <defs id="defs14"></defs>
  
  <g id="g18">
    <path style="fill:#231f20;fill-opacity:1" d="M 541.50024,511.89932 C 502.97514,508.34457 465.67233,496.37462 433.15657,477.1334 420.78073,469.81 402.071,456.16309 392.0002,447.1139 c -3.025,-2.71814 -5.61841,-4.82481 -5.76313,-4.6815 -0.14472,0.14332 0.41778,1.89022 1.25,3.882 0.83222,1.99178 1.51313,4.08588 1.51313,4.65354 0,0.69682 -17.64237,1.03212 -54.30709,1.03212 h -54.30708 l -9.94292,-30.25 -9.94291,-30.25 -65.53988,-0.25712 -65.53988,-0.25712 -9.96012,30.48077 -9.96012,30.48077 -54.6436,0.0264 -54.6436,0.0263 5.29655,-14.25 C 26.15207,382.21287 132.39834,97.98294 133.51362,95.313705 l 1.39107,-3.329294 60.25111,0.257825 60.25111,0.257825 26.04664,69.824389 c 21.28861,57.06931 26.17099,69.30846 26.72732,67 0.37436,-1.55341 1.42362,-7.77439 2.33167,-13.82439 3.68526,-24.55331 10.92202,-47.23488 22.97227,-72 24.31285,-49.966683 64.59558,-90.615448 115.01539,-116.060532 71.54184,-36.10459 155.38944,-36.44449 228.00004,-0.92425 26.3007,12.866004 46.86398,27.766274 69.27458,50.196658 l 15.2746,15.288125 h 58.9968 58.9968 l 0.9768,2.25 c 0.5373,1.2375 15.6155,48.800349 33.5072,105.695229 17.8917,56.89488 32.712,103.62694 32.9341,103.84903 0.2221,0.22208 1.8053,-4.02827 3.5183,-9.44523 1.713,-5.41697 16.7201,-53.04903 33.3491,-105.84903 l 30.23448,-95.999999 67.2186,-0.257038 67.2186,-0.257038 0.01,47.257035 0.01,47.25704 4.5687,-8 c 15.3868,-26.9429 36.4535,-51.04117 56.0307,-64.09382 31.6608,-21.109104 82.486,-31.270403 142.1406,-28.417708 57.2046,2.735532 85.9759,12.997816 111.2258,39.672548 10.2348,10.81236 17.0074,20.31362 22.6124,31.72257 5.4367,11.06653 11.1942,28.26293 9.8664,29.46869 -0.5277,0.47924 -24.1345,4.79045 -52.4595,9.58048 -28.325,4.79003 -52.0066,8.86663 -52.6257,9.05911 -0.6191,0.19248 -3.0286,-3.49017 -5.3543,-8.18366 -10.6252,-21.44249 -29.8859,-32.40171 -57.02,-32.44393 -38.173,-0.0594 -63.1041,17.55225 -74.4768,52.61139 -5.4134,16.68822 -6.9655,28.83654 -6.9659,54.52433 -3e-4,18.05244 0.4038,25.70221 1.7434,33 6.5953,35.92857 17.7938,53.71437 40.8501,64.87903 11.8463,5.7364 18.4638,7.62318 32.0506,9.1382 22.8666,2.54977 52.3091,-4.80059 74.7986,-18.67358 l 6.5,-4.00962 0.2731,-17.66702 0.273,-17.66701 h -37.023 -37.0231 v -37 -37 h 86 86 v 75.97395 75.97396 l -7.25,5.10452 c -9.7184,6.84246 -36.2327,22.70945 -46.678,27.93367 -65.9712,32.99525 -168.1701,34.73181 -228.1288,3.87636 -27.0104,-13.89984 -47.741,-35.18261 -60.3571,-61.96482 -2.4347,-5.1687 -5.2027,-11.87264 -6.151,-14.89764 -0.9483,-3.025 -2.1091,-5.9275 -2.5796,-6.45 -0.4752,-0.52771 -0.8555,21.36448 -0.8555,49.25 v 50.2 h -44.5 -44.5 v -111.2 c 0,-65.46138 -0.3681,-110.80925 -0.8948,-110.25 -0.6626,0.70343 -57.5517,182.64004 -67.75908,216.7 l -1.4236,4.75 h -42.2994 -42.2994 l -34.417,-110.96515 -34.4118,-110.96515 -0.2544,110.96515 -0.2543,110.96515 h -44.9957 -44.9956 v -7.09399 -7.09399 l -8.25,7.41593 c -16.1764,14.54097 -31.48278,25.5915 -49.24998,35.55624 -42.7232,23.96133 -97.3528,35.60381 -146,31.11507 z m 13.2569,-85.64926 -0.2569,-67.75 -15,0.28649 c -25.4283,0.48567 -59.44877,3.90839 -87.83422,8.83681 -3.74551,0.65031 -3.81922,0.74549 -3.18704,4.11526 2.13024,11.35516 17.45699,46.18237 27.27691,61.98176 15.89805,25.57855 35.03355,44.1389 55.44555,53.77896 7.7287,3.65011 16.4838,6.32577 21.0557,6.43491 l 2.757,0.0658 -0.257,-67.75 z m 27.5987,66.19014 c 8.4033,-2.13335 22.7827,-9.31705 30.7302,-15.35228 16.4207,-12.46983 34.8129,-35.62418 46.7378,-58.83965 8.0468,-15.66539 20.2949,-47.46298 18.842,-48.91592 -0.2975,-0.29748 -3.8315,-1.16851 -7.8533,-1.93563 -22.024,-4.20084 -60.0375,-8.05539 -84.8123,-8.59993 l -13.5,-0.29673 -0.257,67.75 -0.257,67.75 h 2.1126 c 1.162,0 4.8776,-0.70194 8.257,-1.55986 z m -95.9699,-15.89481 c -13.95657,-14.65227 -26.48539,-32.82697 -36.80244,-53.38677 -5.06605,-10.09559 -14.45522,-33.52038 -17.5608,-43.81193 l -2.1586,-7.15336 -11.18195,2.91938 c -16.95928,4.42774 -30.40174,9.04151 -45.97857,15.78095 l -4.79662,2.07529 2.3821,3.50558 c 1.31016,1.92807 6.12873,8.03969 10.70793,13.58138 19.368,23.43889 47.45197,45.59485 75.95147,59.9195 9.49646,4.77319 35.86648,15.25234 36.75148,14.60462 0.1099,-0.0804 -3.1814,-3.69601 -7.314,-8.03464 z m 173.9822,-2.11379 c 26.6971,-11.74248 50.90178,-28.57132 72.88208,-50.67286 l 11.75,-11.81484 v -11.89923 -11.89924 l -7.75,-2.94766 c -16.143,-6.13986 -39.17528,-12.72325 -40.24548,-11.50349 -0.3889,0.44318 -2.5443,6.23697 -4.79,12.87509 -8.492,25.10238 -18.795,46.1416 -32.2866,65.93069 -6.9025,10.12431 -19.1424,24.54786 -24.1779,28.49149 -1.5125,1.18452 -2.75,2.55835 -2.75,3.05297 0,1.13974 14.5028,-3.95434 27.3679,-9.61292 z M 369.33845,373.07263 c 9.63531,-4.32307 30.6219,-11.42245 43.16175,-14.60082 6.05,-1.53345 11.3307,-3.07011 11.73488,-3.4148 0.40419,-0.3447 -0.58346,-7.36102 -2.19476,-15.59183 -3.82779,-19.55295 -5.71301,-34.38349 -7.17588,-56.45081 l -1.19418,-18.01431 h -44.47881 -44.4788 l 0.66164,8.25 c 0.59669,7.44002 2.38992,12.88899 18.26477,55.5 9.68172,25.9875 17.95673,47.25 18.38892,47.25 0.43218,0 3.72189,-1.31734 7.31047,-2.92743 z m 375.66177,-56.07257 v -52 h -15.9038 -15.9038 l -0.6307,10.75 c -1.4618,24.91635 -5.25608,54.38013 -9.10358,70.69296 -2.237,9.48447 -2.7384,8.85122 9.79188,12.36484 6.1875,1.73504 15.75,4.70394 21.25,6.59755 5.5,1.89361 10.1125,3.47707 10.25,3.51879 0.1375,0.0417 0.25,-23.32414 0.25,-51.92414 z m -60.07908,31.25 c 3.9076,-14.68251 8.4928,-48.04076 9.6915,-70.50774 l 0.6807,-12.75774 -61.3966,0.25774 -61.3965,0.25774 v 37.5 37.5 l 18,0.63254 c 9.9,0.3479 23.85,1.16354 31,1.81252 13.7677,1.24966 51.602,6.49613 57.5,7.9735 1.925,0.48219 3.8201,0.92278 4.2114,0.97908 0.3913,0.0563 1.1606,-1.58514 1.7095,-3.64764 z m -226.18926,0.33052 c 27.04156,-4.43018 60.91216,-7.55578 82.26836,-7.59177 6.325,-0.0106 12.0681,-0.38002 12.7625,-0.82081 0.9873,-0.62674 1.2053,-8.8523 1,-37.73469 l -0.2625,-36.93325 -61.4021,-0.25774 -61.40204,-0.25775 0.68176,14.25775 c 1.12095,23.44271 8.37199,71.75774 10.76929,71.75774 0.44902,0 7.46216,-1.08876 15.58473,-2.41948 z M 235.0002,314.68264 c 0,-1.71131 -38.99342,-120.96558 -39.8492,-121.87153 -0.73548,-0.77858 -41.03336,121.27548 -40.42496,122.43895 0.21571,0.4125 18.36564,0.75 40.33318,0.75 32.37621,0 39.94098,-0.24952 39.94098,-1.31742 z m 179.40374,-78.43258 c 1.42439,-24.77252 3.89163,-44.64522 8.15784,-65.70817 1.33214,-6.577 2.08825,-12.24524 1.68025,-12.5961 -0.40801,-0.35086 -5.46683,-1.87493 -11.24183,-3.38683 -14.55455,-3.81039 -32.63601,-9.98463 -44.5,-15.19533 -11.75596,-5.16325 -10.00846,-6.13392 -18.20546,10.11237 -14.19787,28.13986 -22.37626,57.64258 -24.8861,89.77406 l -0.68348,8.75 h 44.50158 44.50159 z m 140.0963,-26.25 v -37.5 l -8.5,-0.22 c -27.9783,-0.72413 -59.7883,-3.62206 -85.78273,-7.81493 -8.40549,-1.35579 -15.86862,-2.46507 -16.58474,-2.46507 -2.85425,0 -10.00313,45.57899 -11.25491,71.75774 l -0.68176,14.25775 61.40204,-0.25775 61.4021,-0.25774 z m 140.5,33.19989 c 0,-7.32357 -1.9441,-30.44315 -3.5484,-42.19989 -1.7315,-12.68839 -6.3434,-37.20679 -7.2852,-38.73062 -0.4778,-0.77318 -5.7004,-0.26167 -17.6724,1.73084 -26.4055,4.39473 -57.2135,7.32571 -86.994,8.27633 l -7,0.22345 -0.2628,36.49563 c -0.1445,20.07259 -0.046,37.06009 0.2186,37.75 0.3787,0.98687 13.4967,1.25437 61.5128,1.25437 h 61.0314 z m 49.99998,-47.19989 c 0,-28.6 -0.1715,-52 -0.381,-52 -0.2095,0 -3.4216,1.14452 -7.1381,2.54338 -3.7164,1.39886 -13.075,4.32893 -20.797,6.51126 -7.72188,2.18234 -14.23248,4.1606 -14.46808,4.39614 -0.2355,0.23554 0.7199,6.19297 2.123,13.23874 4.367,21.92745 6.65688,40.4877 8.21228,66.56048 l 0.6413,10.75 h 15.9038 15.9038 z M 554.75714,86.750061 l 0.257,-67.750003 h -2.9016 c -7.1926,0 -25.4927,7.59454 -35.6123,14.779064 -13.4305,9.53509 -26.5792,23.70169 -37.79508,40.720939 -7.78925,11.819611 -20.41838,37.781609 -26.13871,53.733969 -4.77479,13.31554 -5.44362,16.76603 -3.24987,16.76603 0.72401,0 8.27558,1.08962 16.78127,2.42137 25.42149,3.98031 71.74069,7.86041 85.90239,7.19593 l 2.5,-0.1173 z m 53.7431,66.169339 c 23.6929,-1.56306 68.4066,-7.49262 70.2269,-9.31291 0.6713,-0.67137 -4.1534,-15.08637 -9.2941,-27.76827 -13.9875,-34.50649 -33.5087,-62.467928 -55.3397,-79.266488 -11.4512,-8.811524 -30.9932,-17.571674 -39.1985,-17.571674 h -2.8946 v 67.333336 c 0,37.033336 0.209,67.542326 0.4644,67.797776 0.6173,0.61728 16.3092,0.0896 36.0356,-1.21177 z M 433.97142,127.85762 C 446.7659,89.602332 464.88606,58.418142 488.38984,34.205362 l 6.1104,-6.294694 -10.5,3.585544 c -14.68497,5.0146 -38.30307,16.84662 -52.50004,26.30105 -21.63714,14.409201 -41.18704,32.528225 -56.56234,52.422488 l -7.08638,9.16913 4.32436,2.17998 c 5.672,2.85933 24.11407,9.66009 34.82436,12.84195 4.675,1.38886 10.75,3.19298 13.5,4.00915 8.97116,2.66255 9.07553,2.58072 13.47122,-10.56234 z m 276.19882,8.64643 c 6.78148,-1.9228 17.39248,-5.34703 23.57998,-7.6094 l 11.25,-4.1134 v -11.77748 -11.77748 l -8.9847,-9.493486 c -18.4233,-19.466802 -42.59958,-37.114252 -67.51528,-49.282662 -11.9202,-5.82158 -35.5,-15.229294 -35.5,-14.16349 0,0.12057 3.1414,3.48773 6.981,7.48258 21.4023,22.26794 39.672,53.593298 51.4583,88.230828 5.7633,16.93727 5.4148,16 5.9493,16 0.2483,0 5.9999,-1.5732 12.7814,-3.49601 z" id="path22"></path>
  </g>
</svg>
